<svg xmlns="http://www.w3.org/2000/svg" version="1.1" xmlns:xlink="http://www.w3.org/1999/xlink" width="200" height="200"><svg xmlns="http://www.w3.org/2000/svg" version="1.1" xmlns:xlink="http://www.w3.org/1999/xlink" viewBox="0 0 200 200"><rect width="200" height="200" fill="url('#gradient')"></rect><defs><linearGradient id="SvgjsLinearGradient1001" gradientTransform="rotate(0 0.5 0.5)"><stop offset="0%" stop-color="#8547e2"></stop><stop offset="100%" stop-color="#642545"></stop></linearGradient></defs><g><g fill="#000000" transform="matrix(4.585720321081538,0,0,4.585720321081538,42.08051471453354,132.60384696163504)" stroke="#ffffff" stroke-width="0.2"><path d="M9.89-8.57L9.89-6.03L4.50-6.03L4.50-2.64L10.87-2.64L10.87 0L1.07 0L1.07-14.22L10.89-14.22L10.89-11.57L4.50-11.57L4.50-8.57L9.89-8.57ZM20.13 0L17.10-5.29L15.69-3.75L15.69 0L12.27 0L12.27-14.22L15.69-14.22L15.69-7.95L16.88-9.76L19.95-14.22L24.19-14.22L19.38-7.93L24.19 0L20.13 0Z"></path></g></g></svg><style>@media (prefers-color-scheme: light) { :root { filter: none; } }
@media (prefers-color-scheme: dark) { :root { filter: none; } }
</style></svg>